<?xml version="1.0" encoding="utf-8"?>
<!-- Generator: Adobe Illustrator 15.0.2, SVG Export Plug-In . SVG Version: 6.00 Build 0)  -->
<!DOCTYPE svg PUBLIC "-//W3C//DTD SVG 1.1//EN" "http://www.w3.org/Graphics/SVG/1.1/DTD/svg11.dtd">
<svg version="1.1" id="Layer_1" xmlns="http://www.w3.org/2000/svg" xmlns:xlink="http://www.w3.org/1999/xlink" x="0px" y="0px"
	 width="432px" height="432px" viewBox="0 0 432 432" enable-background="new 0 0 432 432" xml:space="preserve">
<rect x="142.128" y="11.518" transform="matrix(-0.0349 -0.9994 0.9994 -0.0349 10.1923 438.7205)" fill="#8D9092" width="149.603" height="405.842"/>
<rect x="145.792" y="7.249" transform="matrix(-0.0349 -0.9994 0.9994 -0.0349 17.3245 439.2272)" fill="#FFFFFF" width="149.899" height="408"/>
<line fill="none" stroke="#D2232A" x1="74.213" y1="141.371" x2="81.045" y2="294.022"/>
<line fill="none" stroke="#D2232A" x1="133.178" y1="139.317" x2="140.01" y2="291.967"/>
<line fill="none" stroke="#D2232A" x1="191.142" y1="137.292" x2="197.974" y2="289.943"/>
<line fill="none" stroke="#D2232A" x1="250.047" y1="133.535" x2="256.879" y2="286.186"/>
<line fill="none" stroke="#D2232A" x1="310.069" y1="133.139" x2="316.901" y2="285.791"/>
<line fill="none" stroke="#D2232A" x1="367.035" y1="131.15" x2="373.867" y2="283.801"/>
<line fill="none" stroke="#D2232A" x1="15.321" y1="174.15" x2="423.021" y2="158.412"/>
<g>
	<defs>
		<rect id="SVGID_1_" x="11.521" y="118.882" width="430.957" height="177.395"/>
	</defs>
	<clipPath id="SVGID_2_">
		<use xlink:href="#SVGID_1_"  overflow="visible"/>
	</clipPath>
	<path clip-path="url(#SVGID_2_)" fill="#977C59" d="M75.978,148.917c5.133-0.179,9.154-4.352,8.98-9.319
		c-0.173-4.968-4.475-8.849-9.608-8.67c-5.133,0.18-9.154,4.353-8.98,9.319C66.543,145.215,70.845,149.096,75.978,148.917"/>
	<path clip-path="url(#SVGID_2_)" fill="#977C59" d="M368.099,140.109c5.133-0.18,9.153-4.353,8.979-9.319
		c-0.173-4.968-4.475-8.849-9.607-8.67c-5.134,0.179-9.154,4.352-8.98,9.319C358.663,136.407,362.965,140.288,368.099,140.109"/>
</g>
<g>
	<path d="M33.509,166.276l1.115-2.087c0.248-0.471,0.809-0.491,1.113-0.27c0.169,0.093,2.908,1.946,5.053,1.871
		c1.715-0.06,2.962-1.226,2.912-2.644c-0.059-1.683-1.518-2.789-4.327-3.813c-3.144-1.145-6.313-3.016-6.449-6.908
		c-0.103-2.936,1.955-6.409,7.2-6.592c3.364-0.118,5.997,1.508,6.674,1.98c0.337,0.186,0.455,0.744,0.236,1.081l-1.188,1.924
		c-0.25,0.406-0.735,0.687-1.141,0.437c-0.269-0.156-2.833-1.718-4.647-1.654c-1.881,0.066-2.859,1.354-2.822,2.411
		c0.055,1.55,1.312,2.562,4.021,3.557c3.244,1.176,7.005,2.958,7.153,7.214c0.119,3.397-2.707,6.634-7.358,6.796
		c-4.156,0.145-6.664-1.716-7.346-2.32C33.4,166.973,33.229,166.814,33.509,166.276z"/>
	<path d="M50.826,156.325c-0.013-0.362,0.275-0.637,0.604-0.649l2.705-0.094c0.329-0.012,0.636,0.243,0.648,0.605l0.228,6.498
		c0.061,1.748,0.989,2.806,2.507,2.753c1.385-0.049,2.396-1.372,2.553-2.567l-0.24-6.86c-0.017-0.495,0.176-0.634,0.704-0.652
		l2.507-0.087c0.329-0.012,0.636,0.243,0.648,0.605l0.417,11.94c0.012,0.33-0.275,0.637-0.604,0.649l-1.221,0.042
		c-0.33,0.012-0.536-0.213-0.645-0.473l-0.434-1.074c-0.575,0.547-1.747,1.977-4.354,2.067c-4.09,0.143-5.684-2.939-5.801-6.303
		L50.826,156.325z"/>
</g>
<g>
	<path d="M93.8,143.463c0.023-0.265,0.214-0.503,0.576-0.516l0.527-0.019c0.264-0.009,0.467,0.116,0.573,0.311l7.8,15.315
		c0.065-0.002,0.065-0.002,0.099-0.003l6.713-15.822c0.092-0.202,0.252-0.339,0.55-0.35l0.527-0.019
		c0.363-0.013,0.568,0.212,0.611,0.474l4.666,22.03c0.115,0.458-0.139,0.765-0.567,0.78l-3.002,0.104
		c-0.297,0.01-0.569-0.244-0.644-0.473l-2.383-12.433c-0.033,0.001-0.099,0.003-0.099,0.003l-5.319,13.165
		c-0.06,0.201-0.251,0.372-0.549,0.382l-0.593,0.021c-0.298,0.01-0.468-0.148-0.574-0.343l-6.291-12.759
		c0,0-0.065,0.002-0.099,0.003l-1.477,12.568c-0.024,0.233-0.279,0.505-0.577,0.516l-2.968,0.104
		c-0.43,0.015-0.703-0.273-0.653-0.737L93.8,143.463z"/>
</g>
<g>
	<path d="M159.135,145.971l-5.047,0.176c-0.363,0.013-0.637-0.274-0.648-0.604l-0.095-2.706c-0.011-0.329,0.242-0.635,0.605-0.647
		l14.414-0.503c0.362-0.013,0.637,0.275,0.648,0.604l0.095,2.706c0.011,0.33-0.242,0.635-0.605,0.648l-5.046,0.176l0.646,18.505
		c0.012,0.33-0.275,0.636-0.604,0.647l-3.067,0.107c-0.33,0.011-0.638-0.274-0.649-0.604L159.135,145.971z"/>
</g>
<g>
	<path d="M206.315,140.161c-0.148-0.458,0.104-0.796,0.566-0.812l3.034-0.106c0.264-0.009,0.535,0.212,0.609,0.44l3.891,13.041
		l0.132-0.004l4.77-13.772c0.06-0.201,0.219-0.372,0.549-0.383l0.594-0.021c0.329-0.011,0.5,0.148,0.573,0.344l5.752,13.405
		l0.132-0.005l2.904-13.278c0.059-0.233,0.314-0.473,0.578-0.482l3.034-0.106c0.462-0.016,0.737,0.304,0.622,0.771l-5.46,22.384
		c-0.057,0.266-0.313,0.473-0.578,0.482l-0.527,0.019c-0.297,0.01-0.501-0.148-0.573-0.344l-6.427-14.735l-0.165,0.006
		l-5.315,15.146c-0.093,0.202-0.219,0.371-0.549,0.383l-0.527,0.018c-0.265,0.009-0.534-0.18-0.61-0.441L206.315,140.161z"/>
</g>
<g>
	<path d="M269.78,141.116l-5.047,0.176c-0.362,0.013-0.637-0.274-0.648-0.604l-0.095-2.705c-0.012-0.33,0.243-0.636,0.605-0.649
		l14.415-0.503c0.363-0.013,0.636,0.275,0.647,0.605l0.095,2.705c0.012,0.33-0.241,0.635-0.604,0.648l-5.047,0.176l0.646,18.505
		c0.012,0.33-0.275,0.636-0.605,0.648l-3.067,0.107c-0.329,0.012-0.637-0.274-0.648-0.604L269.78,141.116z"/>
	<path d="M281.734,137.363c-0.012-0.33,0.275-0.637,0.605-0.649l2.804-0.098c0.33-0.012,0.637,0.275,0.648,0.605l0.351,10.027
		c0.642-0.517,1.907-1.157,3.457-1.211c4.189-0.146,6.018,3.026,6.134,6.358l0.222,6.333c0.012,0.33-0.275,0.637-0.605,0.648
		l-2.672,0.093c-0.363,0.013-0.637-0.274-0.648-0.604l-0.223-6.366c-0.063-1.814-1.126-2.933-2.709-2.877
		c-1.517,0.053-2.506,1.078-2.787,2.442l0.244,6.993c0.013,0.363-0.177,0.633-0.672,0.65l-2.737,0.096
		c-0.33,0.012-0.637-0.274-0.648-0.604L281.734,137.363z"/>
</g>
<g>
	<path d="M332.295,136.588c-0.011-0.329,0.241-0.635,0.604-0.648l13.425-0.469c0.363-0.013,0.637,0.275,0.647,0.604l0.095,2.706
		c0.012,0.329-0.241,0.635-0.604,0.648l-9.764,0.341l0.217,6.201l8.147-0.285c0.33-0.011,0.637,0.275,0.648,0.605l0.094,2.704
		c0.012,0.33-0.273,0.637-0.604,0.648l-8.147,0.285l0.291,8.346c0.012,0.329-0.274,0.636-0.604,0.648l-3.034,0.106
		c-0.363,0.013-0.637-0.275-0.648-0.604L332.295,136.588z"/>
</g>
<g>
	<path d="M388.04,152.904l1.117-2.087c0.247-0.47,0.808-0.489,1.113-0.269c0.168,0.093,2.907,1.945,5.052,1.87
		c1.715-0.06,2.962-1.226,2.912-2.644c-0.059-1.683-1.517-2.787-4.327-3.812c-3.145-1.145-6.314-3.016-6.45-6.907
		c-0.103-2.936,1.956-6.409,7.201-6.592c3.364-0.118,5.997,1.508,6.674,1.979c0.336,0.186,0.455,0.744,0.235,1.082l-1.187,1.923
		c-0.251,0.405-0.736,0.686-1.141,0.436c-0.271-0.156-2.834-1.718-4.648-1.654c-1.88,0.065-2.858,1.355-2.822,2.411
		c0.055,1.55,1.312,2.563,4.021,3.559c3.244,1.174,7.006,2.958,7.154,7.213c0.119,3.397-2.706,6.634-7.357,6.796
		c-4.156,0.145-6.665-1.716-7.347-2.319C387.933,153.603,387.762,153.443,388.04,152.904z"/>
</g>
</svg>
