<?xml version="1.0" encoding="utf-8"?>
<!-- Generator: Adobe Illustrator 15.0.0, SVG Export Plug-In . SVG Version: 6.00 Build 0)  -->
<!DOCTYPE svg PUBLIC "-//W3C//DTD SVG 1.1//EN" "http://www.w3.org/Graphics/SVG/1.1/DTD/svg11.dtd">
<svg version="1.1" id="Layer_1" xmlns="http://www.w3.org/2000/svg" xmlns:xlink="http://www.w3.org/1999/xlink" x="0px" y="0px"
	 width="100px" height="100px" viewBox="0 0 100 100" enable-background="new 0 0 100 100" xml:space="preserve">
<path display="none" fill="#FF6300" d="M62.308,52.334C60.63,65.436,31.552,92.388,31.552,92.388S34.756,55.5,39.5,45.167
	c1.889-4.115,12.505-8.116,16.815-6.73C59.917,39.595,62.788,48.581,62.308,52.334z"/>
<path d="M31.685,93.878c-0.056,0-0.113-0.003-0.17-0.009c-1.015-0.092-1.763-0.989-1.671-2.005c0.113-1.239,2.82-30.491,7.54-44.649
	c0.955-2.864,4.241-7.928,9.381-10.143c3.343-1.442,6.897-1.374,10.275,0.197c3.881,1.804,6.274,4.957,6.924,9.118
	c0.45,2.888,0.001,6.31-1.202,9.153c-4.019,9.499-21.981,29.441-29.729,37.751c-0.695,0.746-1.863,0.786-2.609,0.091
	s-0.787-1.863-0.091-2.609c6.104-6.545,25.089-27.359,29.029-36.671c0.354-0.838,1.473-3.831,0.955-7.146
	c-0.457-2.927-2.082-5.06-4.832-6.338c-2.432-1.13-4.873-1.181-7.257-0.154c-3.786,1.631-6.571,5.613-7.34,7.92
	C36.3,62.139,33.548,91.9,33.521,92.199C33.434,93.157,32.629,93.878,31.685,93.878z"/>
<path stroke="#231F20" stroke-width="5" stroke-miterlimit="10" d="M-86.713,87.803"/>
<path stroke="#231F20" stroke-width="5" stroke-miterlimit="10" d="M-92.622,94.014"/>
<path d="M60.891,38.437c-0.441,0-0.886-0.158-1.238-0.477c-0.756-0.684-0.814-1.852-0.131-2.608l5.395-5.96l1.227,0.554
	c4.133,1.867,8.709,3.164,10.396,3.021c-0.775-1.191-3.346-3.462-5.988-5.231l-2.841-1.902l3.147-1.333
	c2.394-1.012,4.84-2.438,5.783-3.324c-1.543-0.54-5.836-0.569-9.857-0.013l-1.164,0.161l-0.639-0.987
	c-3.426-5.294-7.75-10.1-9.392-10.496c-0.166,1.63,2.499,7.054,5.859,11.831l2.31,3.285l-3.996-0.386
	c-5.039-0.486-10.318-0.214-11.865,0.556c1.373,0.975,6.255,2.109,11.017,2.505l2.641,0.22l-3.518,7.541
	c-0.432,0.925-1.528,1.325-2.453,0.893c-0.925-0.431-1.324-1.529-0.893-2.454l1.305-2.797c-3.682-0.473-9.315-1.545-11.217-3.806
	c-0.77-0.915-0.866-1.829-0.812-2.435c0.056-0.617,0.318-1.516,1.257-2.293c2.15-1.783,7.311-1.981,11.125-1.85
	C54.157,17.125,51.441,12,51.994,9c0.23-1.247,0.915-1.938,1.447-2.298c0.549-0.37,1.47-0.755,2.746-0.494
	c3.91,0.8,9.205,8.122,11.246,11.147c9.83-1.181,12.578,0.888,13.127,2.88c0.562,2.049-1.232,4.164-5.346,6.305
	c3.424,2.651,6.25,5.792,4.873,8.271c-0.878,1.579-3.895,3.479-14.232-0.957l-3.597,3.975
	C61.895,38.232,61.395,38.437,60.891,38.437z"/>
<path fill="none" stroke="#000000" stroke-width="3" stroke-miterlimit="10" d="M39.5,48.167c0,5.076,10.217,12.722,19,10.57"/>
<path fill="none" stroke="#000000" stroke-width="3" stroke-miterlimit="10" d="M36.622,57.422c0,5.076,9.613,10.41,18.396,8.258"/>
<path fill="none" stroke="#000000" stroke-width="3" stroke-miterlimit="10" d="M34.756,66.17c0,5.076,5.461,9.813,14.244,7.661"/>
<path fill="none" stroke="#000000" stroke-width="3" stroke-miterlimit="10" d="M33.634,75.5c0,5.076,4.621,6.761,8.244,5.5"/>
</svg>
