<svg xmlns="http://www.w3.org/2000/svg" xmlns:xlink="http://www.w3.org/1999/xlink" version="1.1" x="0px" y="0px" width="100px" height="100px" viewBox="0 0 100 100" enable-background="new 0 0 100 100" xml:space="preserve">
<g id="Captions">
	<rect x="-192" width="185" height="99"/>
	<rect y="-36" width="100" height="30"/>
	<text transform="matrix(1 0 0 1 66 -19.5)" fill="#000000" font-family="'Helvetica'" font-size="2.4">http://thenounproject.com</text>
	<text transform="matrix(1 0 0 1 7.166 -24.5)"><tspan x="0" y="0" fill="#000000" font-family="'Helvetica-Bold'" font-size="6.1578">The Noun Project</tspan><tspan x="1.12" y="4.8" fill="#000000" font-family="'Helvetica-Bold'" font-size="4">Icon Template</tspan></text>
	<text transform="matrix(1 0 0 1 -178.5 10.5)" fill="#000000" font-family="'Helvetica-Bold'" font-size="6.1578">Reminders</text>
	<line fill="#000000" stroke="#FFFFFF" stroke-miterlimit="10" x1="8" y1="-14.5" x2="18" y2="-14.5"/>
	<line fill="#000000" stroke="#FFFFFF" stroke-miterlimit="10" x1="-179" y1="16.5" x2="-162" y2="16.5"/>
	<g>
		<g>
			<g>
				<rect x="-170.802" y="31.318" fill="#000000" width="8.721" height="8.642"/>
				<path fill="#000000" d="M-164.455,42.312h4.747v-4.703h-4.747V42.312z M-159.266,42.749h-5.63V37.17h5.63V42.749      L-159.266,42.749z M-166.221,44.062h8.279v-8.203h-8.279V44.062L-166.221,44.062z M-157.5,44.5h-9.163v-9.079h9.163V44.5      L-157.5,44.5z"/>
				<polygon fill="#000000" points="-166.149,44.133 -166.292,43.991 -158.013,35.787 -157.871,35.929     "/>
			</g>
		</g>
	</g>
	<rect x="-179" y="58" fill="none" width="35" height="32.5"/>
	<text transform="matrix(1 0 0 1 -179 60.1299)"><tspan x="0" y="0" fill="#000000" font-family="'Helvetica-Bold'" font-size="3">Strokes</tspan><tspan x="0" y="5" fill="#000000" font-family="'Helvetica'" font-size="2.4">Try to keep strokes at 4px</tspan><tspan x="0" y="10" fill="#000000" font-family="'Helvetica'" font-size="2.4">Minimum stroke weight is 2px</tspan><tspan x="0" y="14.5" fill="#000000" font-family="'Helvetica'" font-size="2.4">For thicker strokes use even </tspan><tspan x="0" y="17.5" fill="#000000" font-family="'Helvetica'" font-size="2.4">numbers: 6px, 8px etc.</tspan><tspan x="0" y="22" fill="#000000" font-family="'Helvetica-Bold'" font-size="2.4">Remember to expand strokes </tspan><tspan x="0" y="25" fill="#000000" font-family="'Helvetica-Bold'" font-size="2.4">before saving as an SVG </tspan></text>
	<rect x="-136.5" y="58" fill="none" width="35" height="32.5"/>
	<text transform="matrix(1 0 0 1 -136.5 60.1299)"><tspan x="0" y="0" fill="#000000" font-family="'Helvetica-Bold'" font-size="3">Size</tspan><tspan x="0" y="5" fill="#000000" font-family="'Helvetica'" font-size="2.4">Cannot be wider or taller than </tspan><tspan x="0" y="8.5" fill="#000000" font-family="'Helvetica'" font-size="2.4">100px (artboard size)</tspan><tspan x="0" y="13.5" fill="#000000" font-family="'Helvetica'" font-size="2.4">Scale your icon to fill as much of </tspan><tspan x="0" y="16.5" fill="#000000" font-family="'Helvetica'" font-size="2.4">the artboard as possible</tspan></text>
	<rect x="-94" y="58" fill="none" width="35" height="32.5"/>
	<text transform="matrix(1 0 0 1 -94 60.1299)"><tspan x="0" y="0" fill="#000000" font-family="'Helvetica-Bold'" font-size="3">Ungroup</tspan><tspan x="0" y="5" fill="#000000" font-family="'Helvetica'" font-size="2.4">If your design has more than one </tspan><tspan x="0" y="8" fill="#000000" font-family="'Helvetica'" font-size="2.4">shape, make sure to ungroup</tspan></text>
	<rect x="-50" y="58" fill="none" width="35" height="32.5"/>
	<text transform="matrix(1 0 0 1 -50 60.1299)"><tspan x="0" y="0" fill="#000000" font-family="'Helvetica-Bold'" font-size="3">Save as</tspan><tspan x="0" y="5" fill="#000000" font-family="'Helvetica'" font-size="2.4">Save as .SVG and make sure &#8220;Use </tspan><tspan x="0" y="8" fill="#000000" font-family="'Helvetica'" font-size="2.4">Artboards&#8221; is checked</tspan></text>
	<text transform="matrix(1.0074 0 0 1 -125.542 30.5933)" fill="#000000" font-family="'Helvetica'" font-size="2.5731">100px</text>
	<text transform="matrix(1.0074 0 0 1 -41 39)" fill="#000000" font-family="'Helvetica-Bold'" font-size="5.1462">.SVG</text>
	<rect x="-126.514" y="34.815" fill="#000000" width="10.261" height="10.185"/>
	<rect x="-126.477" y="31.766" fill="#000000" width="0.522" height="2.337"/>
	<rect x="-116.813" y="31.766" fill="#000000" width="0.523" height="2.337"/>
	<rect x="-127" y="32.337" fill="#000000" width="11.233" height="0.572"/>
	<g>
		<rect x="-83.805" y="33.844" fill="#000000" width="10.305" height="10.156"/>
		<rect x="-76.809" y="28.707" fill="#000000" width="3.308" height="3.261"/>
	</g>
	<rect x="-178.5" y="22.5" fill="#000000" stroke="#FFFFFF" stroke-miterlimit="10" width="30" height="30"/>
	<rect x="-136.5" y="22.5" fill="#000000" stroke="#FFFFFF" stroke-miterlimit="10" width="30" height="30"/>
	<rect x="-93.5" y="22.5" fill="#000000" stroke="#FFFFFF" stroke-miterlimit="10" width="30" height="30"/>
	<rect x="-49.5" y="22.5" fill="#000000" stroke="#FFFFFF" stroke-miterlimit="10" width="30" height="30"/>
</g>
<g id="Your_Icon">
	<g>
		<path fill="#000000" d="M82.643,64.106c0.004,0,0.009-0.182-0.021-0.282c-0.046-0.149-0.137-0.251-0.245-0.348l-7.621-24.971    c-0.111-0.368-0.452-0.613-0.837-0.613H24.866c-0.386,0-0.727,0.254-0.838,0.624l-7.509,24.899    c-0.175,0.118-0.313,0.263-0.375,0.472c-0.024,0.083-0.014,0.219-0.014,0.219h-0.065l0.071,0.975    c0.156,2.065,2.45,5.204,5.509,5.204c0.528,0,0.805-0.081,1.533-0.246v26.54c0,0.969,0.854,1.752,1.821,1.752    c0.967,0,1.82-0.783,1.82-1.752v-8.442h45.146v8.442c0,0.969,0.854,1.752,1.821,1.752c0.967,0,1.82-0.783,1.82-1.752v-26.54    c0.728,0.165,1.005,0.262,1.533,0.262c3.059,0,5.337-3.154,5.492-5.221l0.088-0.974H82.643z M64.133,64.106l-3.289-24.758h5.252    l5.476,24.758H64.133z M71.385,65.563c-0.563,1.456-1.957,2.627-3.475,2.627s-2.909-1.171-3.473-2.627H71.385z M45.683,64.106    l1.088-24.758h5.047l1.04,24.758H45.683z M52.866,65.563c-0.563,1.456-1.958,2.627-3.475,2.627s-2.91-1.171-3.474-2.627H52.866z     M27.261,64.106l5.418-24.758h5.287l-3.354,24.758H27.261z M34.345,65.563c-0.562,1.456-1.956,2.627-3.473,2.627    c-1.516,0-2.91-1.171-3.474-2.627H34.345z M26.818,85.952V67.97c0.728,1.284,2.384,2.332,4.154,2.332    c2.015,0,3.629-1.358,4.58-2.873c0.95,1.515,2.59,2.873,4.605,2.873c2.014,0,3.667-1.358,4.617-2.873    c0.95,1.515,2.609,2.873,4.624,2.873c2.014,0,3.677-1.358,4.627-2.873c0.949,1.515,2.614,2.873,4.627,2.873    c2.016,0,3.68-1.358,4.631-2.873c0.949,1.515,2.513,2.873,4.528,2.873c1.771,0,3.426-1.048,4.153-2.332v17.982H26.818z"/>
		<path fill="#000000" d="M33.904,77.694c-0.474,0.042-0.92,0.165-1.33,0.349l-0.145-0.306c0.006-0.001,1.221-0.103,1.743-1.377    c0.49-1.207-0.283-2.204-0.283-2.204s-1.141-0.096-1.742,1.378c-0.2,0.491-0.223,0.896-0.177,1.228l-0.365-0.775l-0.949,0.447    c0,0,1.083,1.328,1.492,1.83c-1.35,0.799-2.197,2.321-2.047,3.988c0.209,2.308,2.249,4.009,4.556,3.8    c2.308-0.208,4.009-2.249,3.801-4.557C38.253,79.188,36.21,77.485,33.904,77.694z"/>
		<path fill="#000000" d="M43.981,77.694c-0.474,0.042-0.92,0.165-1.331,0.349l-0.144-0.306c0.006-0.001,1.222-0.103,1.744-1.377    c0.491-1.207-0.284-2.204-0.284-2.204s-1.142-0.096-1.742,1.378c-0.2,0.491-0.225,0.896-0.178,1.228l-0.365-0.775l-0.949,0.447    c0,0,1.083,1.328,1.493,1.83c-1.351,0.799-2.197,2.321-2.047,3.988c0.209,2.308,2.25,4.009,4.557,3.8    c2.307-0.208,4.009-2.249,3.802-4.557C48.33,79.188,46.289,77.485,43.981,77.694z"/>
		<path fill="#000000" d="M54.059,77.694c-0.473,0.042-0.92,0.165-1.331,0.349l-0.144-0.306c0.006-0.001,1.223-0.103,1.743-1.377    c0.491-1.207-0.282-2.204-0.282-2.204s-1.142-0.096-1.743,1.378c-0.199,0.491-0.225,0.896-0.177,1.228l-0.365-0.775l-0.949,0.447    c0,0,1.083,1.328,1.492,1.83c-1.35,0.799-2.197,2.321-2.047,3.988c0.21,2.308,2.249,4.009,4.557,3.8    c2.308-0.208,4.01-2.249,3.801-4.557C58.406,79.188,56.365,77.485,54.059,77.694z"/>
		<path fill="#000000" d="M64.135,77.694c-0.473,0.042-0.919,0.165-1.33,0.349l-0.144-0.306c0.006-0.001,1.222-0.103,1.743-1.377    c0.491-1.207-0.283-2.204-0.283-2.204s-1.142-0.096-1.743,1.378c-0.198,0.491-0.225,0.896-0.177,1.228l-0.364-0.775l-0.948,0.447    c0,0,1.082,1.328,1.49,1.83c-1.35,0.799-2.195,2.321-2.046,3.988c0.209,2.308,2.249,4.009,4.557,3.8    c2.307-0.208,4.01-2.249,3.801-4.557C68.483,79.188,66.442,77.485,64.135,77.694z"/>
	</g>
	<path fill="#000000" d="M55.736,12.648c-4.055,3.894-3.663,7.595-3.663,7.595c1.835,0.842,3.68,0.677,6.282-0.289   c2.68-0.994,7.378-4.368,9.272-6.865c4.72-6.224,7.346-7.308,7.346-7.308s-9.335-8.729-18.295-2.597   c-3.645,2.494-5.316,5.466-6.019,8.117c-0.686,2.115-2.232,8.396,0.912,14.771c0,0,0.466,0.68,0.68-0.465   c0.123-0.657-0.822-1.932-1.073-3.754c-0.155-1.129-0.485-2.521,0.267-4.917c0.042-0.111,0.081-0.215,0.127-0.34   c1.215-3.326,4.612-5.651,5.971-6.581c5.436-3.719,8.98-3.49,8.98-3.49S59.789,8.753,55.736,12.648z"/>
	<path fill="#000000" d="M36.952,13.965C26.148,12.876,22.139,25.01,22.139,25.01s7.547-2.01,15.129-0.135   c5.012,1.239,10.339,4.969,11.98,3.102c2.949,2.657,1.572,6.876,2.39,6.208c0.578-0.472,0.39-1.825,0.301-2.501   c-0.836-6.273-4.969-9.562-7.651-11.064c-0.668-0.409-1.402-0.758-2.203-1.018c-0.089-0.031-0.142-0.048-0.142-0.048   c-6.02-1.848-10.28-0.622-10.28-0.622s3.524-2.127,10.363-0.197c5.157,1.457,7.459,5.668,7.459,5.668S47.756,15.056,36.952,13.965z   "/>
</g>
</svg>