<svg xmlns="http://www.w3.org/2000/svg" xmlns:xlink="http://www.w3.org/1999/xlink" version="1.1" id="Layer_1" x="0px" y="0px" width="100px" height="100px" viewBox="0 0 100 100" enable-background="new 0 0 100 100" xml:space="preserve">
<path d="M85.896,20.024"/>
<g>
	<rect x="60.439" y="42.119" fill="none" width="5.561" height="5.561"/>
	<rect x="60.439" y="49.928" fill="none" width="5.561" height="5.561"/>
	<rect x="44.516" y="42.119" fill="none" width="5.561" height="5.561"/>
	<rect x="51.439" y="32.356" fill="none" width="18.567" height="4.597"/>
	<rect x="44.516" y="49.928" fill="none" width="5.561" height="5.561"/>
	<rect x="52.439" y="42.119" fill="none" width="5.561" height="5.561"/>
	<rect x="52.439" y="49.928" fill="none" width="5.561" height="5.561"/>
	<rect x="36.439" y="42.119" fill="none" width="5.561" height="5.561"/>
	<path fill="none" d="M38.068,17.08h-0.035l-2.078-2.077l-2.077,2.077v14.043h-0.016v7.595h12.938v-7.595v-1.485V17.08h-0.048   l-2.034-2.034l-2.033,2.034H42.64l-2.288-2.287l-2.286,2.285L38.068,17.08z M44.979,36.953h-9.54v-2.328h9.54V36.953z    M44.979,30.625v2.328h-9.54v-2.328H44.979z M41.155,26.625v2.328h-5.716v-2.328H41.155z"/>
	<rect x="36.439" y="49.928" fill="none" width="5.561" height="5.561"/>
	<rect x="29.599" y="58.488" fill="none" width="43.324" height="7.911"/>
	<path d="M76.75,55.488h-3.591V29.638H48.583V15.729l-1.3-1.124h-0.019l-2.304-2.304l-2.286,2.286L42.76,14.6h-0.11l-2.297-2.298   l-2.286,2.286l0.066,0.006h-0.098l-2.292-2.292l-2.286,2.286l-1.187,1.225l-0.132,13.825h-3.048v25.851H25.5v14.109h16.066   l9.773,19.979l9.623-19.979H76.75V55.488z M42,47.68h-5.561v-5.561H42V47.68z M58,47.68h-5.561v-5.561H58V47.68z M58,49.928v5.561   h-5.561v-5.561H58z M50.076,55.488h-5.561v-5.561h5.561V55.488z M60.439,55.488v-5.561H66v5.561H60.439z M60.439,47.68v-5.561H66   v5.561H60.439z M51.439,32.356h18.567v4.597H51.439V32.356z M50.076,47.68h-5.561v-5.561h5.561V47.68z M42.64,17.08h0.048   l2.033-2.034l2.034,2.034h0.048v12.558v1.485v7.595H33.863v-7.595h0.016V17.08l2.077-2.077l2.078,2.077h0.035l-0.002-0.002   l2.286-2.285L42.64,17.08z M36.439,49.928H42v5.561h-5.561V49.928z M72.923,66.399H29.599v-7.911h43.324V66.399z"/>
	<rect x="35.439" y="34.625" width="9.54" height="2.328"/>
	<rect x="35.439" y="30.625" width="9.54" height="2.328"/>
	<rect x="35.439" y="26.625" width="5.716" height="2.328"/>
</g>
</svg>